:SAMPLES-PER-SECOND 30
:FULLY-SPECIFIED
:DEGREES
135
root  34.9850572 36.50226142 -14.78104779 8.923697472 -10.60894966 4.858895779
lowerback  -6.835330009 -1.994889975 -1.270390153
upperback  -3.767780066 -2.123369932 -4.251589775
thorax  -0.1734890044 -0.9002429843 -3.815670013
lowerneck  2.281980038 -19.46920013 -12.77499962
upperneck  2.400249958 -26.80580139 13.95699978
head  3.919699907 -13.27740002 4.533889771
lclavicle  0 -4.497500157e-015 -2.743230041e-014
lhumerus  -49.31940079 26.64679909 62.96250153
lradius  5.228657756e-007 -6.507048965e-006 30.73929977
lwrist  4.824992743e-007 -3.790274832e-007 -27.14970016
lhand  -4.406287275e-031 -36.73759842 -10.57499981
lfingers  90 7.125020027 -90
lthumb  94.71903742 -25.41831517 100.8863553
rclavicle  0 -4.497500157e-015 -2.743230041e-014
rhumerus  -4.395950794 -41.4875946 -0.8801938891
rradius  -5.16745672e-007 2.214343908e-008 62.88610077
rwrist  -0.0001064338358 0.02974390797 -168.2539978
rhand  -1.770298135e-031 4.191790104 -5.394219875
rfingers  -90 -7.125020027 -90
rthumb  -84.03392151 -10.36903666 -59.85938344
rfemur  -14.0537653 16.53036499 10.48060226
rtibia  -1.46669364 -3.031554461 21.47350121
rfoot  0.7602810264 -24.81752586 -31.64751434
rtoes  4.033239797 19.6054349 -101.8673381
lfemur  -8.477183342 -17.15879059 -22.73804283
ltibia  2.95204258 -3.581650972 14.92560005
lfoot  1.412980914 -18.89668846 40.63561249
ltoes  -8.59651324 -18.12693663 -115.9149292
136
root  34.99104958 36.50248971 -14.7776431 8.938427925 -10.63573933 4.889071941
lowerback  -6.816840172 -2.005029917 -1.256069422
upperback  -3.775779963 -2.135890007 -4.284520149
thorax  -0.194690004 -0.906069994 -3.858170033
lowerneck  2.371279955 -19.4428997 -12.72900009
upperneck  2.321290016 -26.77160072 14.0170002
head  3.880429983 -13.2638998 4.563270092
lclavicle  0 -4.497500157e-015 -2.743230041e-014
lhumerus  -49.35179901 26.58779907 62.87340164
lradius  5.228657756e-007 -6.507048965e-006 30.7534008
lwrist  4.824992743e-007 -3.790274832e-007 -27.1651001
lhand  -4.422448222e-031 -37.01720047 -10.8270998
lfingers  90 7.125020027 -90
lthumb  94.90375899 -25.65577775 101.2085638
rclavicle  0 -4.497500157e-015 -2.743230041e-014
rhumerus  -3.744072437 -41.53770065 -1.028026223
rradius  -5.16745672e-007 2.214343908e-008 61.84260178
rwrist  -0.0001064338358 0.02974390797 -167.9960022
rhand  -1.771150261e-031 4.552420139 -5.219560146
rfingers  -90 -7.125020027 -90
rthumb  -83.8494512 -10.53667546 -59.48931738
rfemur  -14.0716486 16.4364624 10.43237305
rtibia  -1.471930742 -3.073171377 21.46894836
rfoot  0.7844446898 -24.86213875 -31.52846146
rtoes  4.027376826 19.60659462 -101.8498654
lfemur  -8.471767426 -17.11421204 -22.79232979
ltibia  2.986516953 -3.570044994 14.88830853
lfoot  1.445062399 -18.93032646 40.67362976
ltoes  -8.584923341 -18.13228411 -115.8776827
137
root  34.99825245 36.50233952 -14.77610671 8.943935394 -10.66437149 4.939407825
lowerback  -6.801400185 -1.993630052 -1.208660007
upperback  -3.764600039 -2.123650074 -4.311190128
thorax  -0.1939750016 -0.9010009766 -3.911600113
lowerneck  2.312740088 -19.45149994 -12.67490005
upperneck  2.360960007 -26.77980042 14.00220013
head  3.893569946 -13.26369953 4.545159817
lclavicle  0 -4.497500157e-015 -2.743230041e-014
lhumerus  -49.29940033 26.58189964 62.80929947
lradius  5.228657756e-007 -6.507048965e-006 30.72160149
lwrist  4.824992743e-007 -3.790274832e-007 -27.21529961
lhand  -4.434992872e-031 -37.23160172 -10.94869995
lfingers  90 7.125020027 -90
lthumb  95.0316507 -25.76711055 101.4495838
rclavicle  0 -4.497500157e-015 -2.743230041e-014
rhumerus  -3.043678761 -41.65060043 -1.114612222
rradius  -5.16745672e-007 2.214343908e-008 60.74449921
rwrist  -0.0001064338358 0.02974390797 -167.7350006
rhand  -1.771105726e-031 4.534289837 -5.235429764
rfingers  -90 -7.125020027 -90
rthumb  -83.86245778 -10.52215557 -59.50860672
rfemur  -14.11454773 16.39943504 10.36795235
rtibia  -1.492569327 -3.106558084 21.5190773
rfoot  0.7662785053 -24.89687729 -31.48498917
rtoes  4.018244371 19.60839754 -101.8226511
lfemur  -8.430092812 -17.10460854 -22.88500786
ltibia  3.049345016 -3.572500944 14.79923344
lfoot  1.476315498 -18.91215134 40.74715042
ltoes  -8.566979469 -18.1405455 -115.8200374
138
root  35.00501377 36.50312949 -14.77410324 8.969984055 -10.69979954 4.970552444
lowerback  -6.795090199 -1.983070016 -1.189769626
upperback  -3.735160112 -2.111589909 -4.327589989
thorax  -0.167741999 -0.8960049748 -3.938819885
lowerneck  2.412909985 -19.41259956 -12.64350033
upperneck  2.157520056 -26.72039986 14.09749985
head  3.818520069 -13.2407999 4.595739841
lclavicle  0 -4.497500157e-015 -2.743230041e-014
lhumerus  -49.24449921 26.62730026 62.75260162
lradius  5.228657756e-007 -6.507048965e-006 30.67919922
lwrist  4.824992743e-007 -3.790274832e-007 -27.28479958
lhand  -0 -37.24530029 -10.83619976
lfingers  90 7.125020027 -90
lthumb  95.01339402 -25.65637067 101.4536004
rclavicle  0 -4.497500157e-015 -2.743230041e-014
rhumerus  -2.551569462 -41.65810013 -1.060649753
rradius  -5.16745672e-007 2.214343908e-008 59.80500031
rwrist  -0.0001064338358 0.02974390797 -167.3159943
rhand  -1.770738284e-031 4.381810188 -5.056729794
rfingers  -90 -7.125020027 -90
rthumb  -83.81095146 -10.66927669 -59.64132858
rfemur  -14.16457081 16.35613441 10.31925869
rtibia  -1.502854943 -3.134022236 21.54693413
rfoot  0.7742402554 -24.92076492 -31.39732742
rtoes  4.009110568 19.61019644 -101.7954351
lfemur  -8.462181091 -17.16610336 -22.92836952
ltibia  3.060121536 -3.622750044 14.79662323
lfoot  1.47456193 -18.81579781 40.77928162
ltoes  -8.557615147 -18.14484829 -115.7899642
